<svg id="Capa_1" enable-background="new 0 0 512 512" height="512" viewBox="0 0 512 512" width="512" xmlns="http://www.w3.org/2000/svg"><g><g><path d="m113.094 408.318v79.949c0 12.294 13.15 20.113 23.951 14.242l19.301-10.49c7.137-3.879 15.753-3.879 22.89 0l19.301 10.49c10.801 5.871 23.951-1.948 23.951-14.242v-79.949l-54.697-25.007z" fill="#ff6f7f"/><path d="m113.094 408.318v30h109.393v-30l-54.696-25.007z" fill="#fc5c70"/><path d="m349.089 7.5 51.064 220.452-51.064 180.366h-256.038c-23.911 0-43.293-19.381-43.293-43.293v-314.222c.001-23.911 19.382-43.303 43.293-43.303z" fill="#827f98"/><path d="m451.218 50.803v314.223c0 23.911-19.381 43.293-43.293 43.293h-58.836v-400.819h58.836c23.911 0 43.293 19.392 43.293 43.303z" fill="#e8a882"/><path d="m435.397 172.844h-81.297c-30.716 0-55.545 25.142-55.102 55.918.435 30.254 25.67 54.298 55.927 54.298h80.473c14.826 0 26.844-12.018 26.844-26.844v-56.528c-.001-14.826-12.019-26.844-26.845-26.844z" fill="#f1c6ad"/><path d="m249.649 60.821h-100.45c-16.861 0-30.529 13.668-30.529 30.529v33.476c0 16.861 13.668 30.529 30.529 30.529h100.45c16.861 0 30.529-13.668 30.529-30.529v-33.476c0-16.861-13.668-30.529-30.529-30.529z" fill="#fff"/><circle cx="354.116" cy="228.762" fill="#e8a882" r="19.229"/><path d="m73.487 231.76c0-118.217 22.68-187.722 83.719-224.26h-64.155c-23.911 0-43.293 19.392-43.293 43.303v314.223c0 23.911 19.381 43.292 43.293 43.292h50.317c-43.329-46.158-69.881-108.254-69.881-176.558z" fill="#77718c"/></g><g><path d="m249.649 53.32h-100.447c-20.969 0-38.028 17.059-38.028 38.028v33.475c0 20.969 17.06 38.028 38.028 38.028h100.448c20.969 0 38.028-17.059 38.028-38.028v-33.476c-.001-20.968-17.06-38.027-38.029-38.027zm23.029 71.503c0 12.698-10.33 23.029-23.028 23.029h-100.448c-12.698 0-23.029-10.33-23.029-23.029v-33.476c0-12.698 10.331-23.028 23.029-23.028h100.448c12.698 0 23.028 10.33 23.028 23.028z"/><path d="m236.338 100.585h-73.826c-4.142 0-7.5 3.358-7.5 7.5s3.358 7.5 7.5 7.5h73.826c4.142 0 7.5-3.358 7.5-7.5s-3.358-7.5-7.5-7.5z"/><path d="m354.114 255.485c14.738 0 26.728-11.99 26.728-26.728s-11.99-26.728-26.728-26.728-26.728 11.99-26.728 26.728c-.001 14.738 11.99 26.728 26.728 26.728zm0-38.457c6.467 0 11.728 5.261 11.728 11.728s-5.261 11.729-11.728 11.729-11.729-5.262-11.729-11.729 5.261-11.728 11.729-11.728z"/><path d="m103.029 308.82v17.082c0 4.142 3.358 7.5 7.5 7.5s7.5-3.358 7.5-7.5v-17.082c0-4.142-3.358-7.5-7.5-7.5s-7.5 3.358-7.5 7.5z"/><path d="m280.822 308.82v17.082c0 4.142 3.358 7.5 7.5 7.5s7.5-3.358 7.5-7.5v-17.082c0-4.142-3.358-7.5-7.5-7.5s-7.5 3.358-7.5 7.5z"/><path d="m217.208 320.466c-4.489 5.151-10.97 8.105-17.783 8.105s-13.295-2.954-17.783-8.105c-2.722-3.123-7.459-3.448-10.581-.727-3.123 2.721-3.448 7.459-.727 10.581 7.338 8.42 17.941 13.25 29.092 13.25 11.15 0 21.753-4.829 29.091-13.25 2.721-3.122 2.396-7.86-.727-10.581-3.122-2.721-7.86-2.396-10.582.727z"/><path d="m93.055 415.808h12.543v72.447c0 17.97 19.218 29.426 35.032 20.832l19.3-10.49c4.924-2.677 10.802-2.676 15.726 0l19.3 10.49c15.788 8.581 35.032-2.833 35.032-20.832v-72.447h177.933c28.006 0 50.791-22.785 50.791-50.791v-83.625c6.774-6.277 11.024-15.241 11.024-25.182v-56.526c0-9.941-4.25-18.905-11.024-25.182v-123.7c.001-28.013-22.785-50.802-50.791-50.802-5.319 0-302.11 0-314.866 0-28.006 0-50.791 22.789-50.791 50.801v163.088c0 4.142 3.358 7.5 7.5 7.5s7.5-3.358 7.5-7.5v-163.088c-.001-19.741 16.056-35.801 35.791-35.801h248.532v74.515c0 4.128 3.343 7.5 7.5 7.5 4.139 0 7.5-3.354 7.5-7.5v-74.515h51.335c19.735 0 35.792 16.061 35.792 35.802v115.55c-2.266-.561-5.34-1.007-8.282-1.011-.013 0-.025-.001-.038-.001h-78.806v-45.826c0-4.142-3.358-7.5-7.5-7.5s-7.5 3.358-7.5 7.5v47.069c-27.521 5.547-49.119 29.563-50.059 59.334-.032.978-.044 1.96-.03 2.947v.002c.424 29.087 21.228 54.181 50.089 60.285v111.656h-248.533c-19.735 0-35.792-16.056-35.792-35.792v-121.126c0-4.142-3.358-7.5-7.5-7.5s-7.5 3.358-7.5 7.5v121.128c.001 28.006 22.786 50.791 50.792 50.791zm121.934 72.447c0 6.596-7.055 10.813-12.869 7.653l-19.3-10.49c-9.408-5.114-20.643-5.114-30.052 0l-19.3 10.49c-5.819 3.161-12.869-1.06-12.869-7.653v-72.447h94.391v72.447zm91.53-261.926c.871-25.23 21.754-45.99 47.578-45.99h81.295c10.618 0 19.344 8.665 19.344 19.344v56.526c0 10.681-8.726 19.344-19.344 19.344h-80.471c-.052 0-.103-.004-.155-.004-26.926-.09-49.138-22.195-48.247-49.22zm137.194 63.211v75.476c0 19.735-16.056 35.792-35.792 35.792h-51.335v-110.255h78.806c.017 0 .034-.001.051-.001 2.955-.005 6.036-.454 8.27-1.012z"/></g></g></svg>