<svg id="Capa_1" enable-background="new 0 0 512 512" height="512" viewBox="0 0 512 512" width="512" xmlns="http://www.w3.org/2000/svg"><g><g><path d="m487.887 200.392h-34.259c-7.027 0-13.233-4.444-15.649-11.043-1.854-5.064-3.912-10.029-6.166-14.885-2.961-6.378-1.72-13.914 3.252-18.887l24.224-24.224c6.488-6.488 6.488-17.007 0-23.495l-55.147-55.148c-6.488-6.488-17.007-6.488-23.495 0l-24.224 24.225c-4.973 4.973-12.508 6.213-18.887 3.252-4.856-2.254-9.821-4.312-14.885-6.166-6.599-2.416-11.043-8.622-11.043-15.649v-34.259c0-9.175-7.438-16.613-16.613-16.613h-77.99c-9.175 0-16.613 7.438-16.613 16.613v34.259c0 7.027-4.444 13.233-11.043 15.649-5.064 1.854-10.029 3.911-14.885 6.166-6.379 2.961-13.915 1.72-18.887-3.252l-24.225-24.225c-6.488-6.487-17.007-6.487-23.495 0l-55.147 55.147c-6.488 6.488-6.488 17.007 0 23.495l24.224 24.224c4.973 4.973 6.213 12.508 3.253 18.887-2.254 4.856-4.312 9.821-6.166 14.885-2.416 6.599-8.622 11.043-15.649 11.043h-34.259c-9.175 0-16.613 7.438-16.613 16.613v77.99c0 9.175 7.438 16.613 16.613 16.613h34.259c7.027 0 13.234 4.444 15.649 11.043 1.854 5.064 3.912 10.029 6.166 14.885 2.961 6.378 1.72 13.914-3.253 18.887l-24.224 24.225c-6.488 6.488-6.488 17.007 0 23.495l55.148 55.148c6.488 6.488 17.007 6.488 23.495 0l24.224-24.225c4.973-4.973 12.508-6.213 18.887-3.252 4.856 2.254 9.821 4.312 14.885 6.166 6.599 2.416 11.043 8.622 11.043 15.649v34.259c0 9.175 7.438 16.613 16.613 16.613h77.99c9.175 0 16.613-7.438 16.613-16.613v-34.259c0-7.027 4.444-13.233 11.043-15.649 5.064-1.854 10.029-3.912 14.885-6.166 6.379-2.961 13.914-1.72 18.887 3.252l24.224 24.225c6.488 6.488 17.007 6.488 23.495 0l55.148-55.148c6.488-6.488 6.488-17.006 0-23.495l-24.224-24.224c-4.973-4.973-6.213-12.508-3.253-18.887 2.254-4.856 4.312-9.821 6.166-14.885 2.415-6.599 8.622-11.043 15.649-11.043h34.259c9.175 0 16.613-7.438 16.613-16.613v-77.99c0-9.175-7.438-16.613-16.613-16.613zm-231.887 185.608c-71.797 0-130-58.203-130-130s58.203-130 130-130 130 58.203 130 130-58.203 130-130 130z" fill="#baafb9"/><path d="m295.358 110.469c12.117-.098 20.197 11.018 16.138 21.498-10.786 27.849-22.726 55.347-34.367 82.851-.705 1.665-.2 2.36 1.179 3.156 21.799 12.585 43.55 25.254 65.37 37.802 10.75 6.182 12.461 18.761 3.491 27.27-39.522 37.491-79.106 74.917-118.675 112.357-6.637 6.28-13.173 7.705-19.977 4.411-7.411-3.588-11.049-12.022-8.023-19.84 4.128-10.669 8.651-21.186 13.045-31.751 7.088-17.044 14.177-34.087 21.359-51.091.733-1.735.118-2.352-1.218-3.121-22.071-12.692-44.36-25.129-66.155-38.287-10.146-6.126-11.345-18.615-2.696-26.81 39.546-37.469 79.208-74.82 118.676-112.371 3.641-3.464 7.635-5.938 11.853-6.074z" fill="#fedf30"/><path d="m343.678 255.775c-21.821-12.548-43.571-25.217-65.37-37.802-1.379-.796-1.884-1.49-1.179-3.156 11.642-27.504 23.582-55.002 34.367-82.851 4.059-10.48-4.021-21.597-16.138-21.499-4.218.137-8.212 2.61-11.853 6.073-1.611 1.532-3.226 3.06-4.837 4.592 3.653 4.168 5.03 10.04 2.827 15.727-3.838 9.91-17.504 44.423-26.075 66.711-4.24 11.027.162 23.495 10.385 29.416 15.951 9.238 31.893 18.492 47.873 27.681 10.75 6.182 12.461 18.761 3.491 27.27-37.933 35.983-75.923 71.907-113.903 107.842 1.418 1.64 3.181 3.03 5.251 4.032 6.804 3.294 13.339 1.87 19.977-4.411 39.569-37.44 79.154-74.866 118.675-112.357 8.97-8.507 7.259-21.086-3.491-27.268z" fill="#fac600"/></g><path d="m318.839 133.688c2.33-6.892 1.314-14.219-2.86-20.258-4.534-6.562-12.172-10.461-20.467-10.461-.133 0-.265 0-.397.004-5.652.183-11.298 2.92-16.779 8.136-39.751 37.821-79.095 74.872-118.665 112.36-5.884 5.575-8.794 13.071-7.985 20.566.8 7.401 5.16 14.001 11.962 18.109 20.746 12.527 41.771 24.308 62.582 36.237-9.716 22.745-18.483 44.113-27.524 65.908-39.85-21.12-65.206-62.801-65.206-108.289 0-28.191 9.807-55.71 27.616-77.489 17.567-21.484 42.092-36.501 69.057-42.286 4.05-.869 6.629-4.856 5.76-8.906-.868-4.05-4.853-6.629-8.906-5.76-30.279 6.495-57.811 23.349-77.523 47.457-19.993 24.45-31.004 55.342-31.004 86.984 0 51.611 29.084 98.853 74.654 122.304-3.702 11.059 1.347 23.056 12.095 28.26 9.241 4.474 18.972 3.208 28.4-5.713 39.228-37.119 79.111-74.826 118.682-112.364 5.949-5.643 8.849-13.176 7.956-20.666-.906-7.604-5.597-14.364-12.871-18.546-20.713-11.91-41.072-23.756-61.638-35.647 9.244-21.758 18.623-43.604 27.558-65.898 39.826 21.13 65.164 62.799 65.164 108.27 0 28.076-9.736 55.508-27.415 77.242-17.433 21.433-41.801 36.488-68.615 42.392-4.045.891-6.603 4.892-5.712 8.938.897 4.075 4.975 6.584 8.938 5.712 30.108-6.629 57.463-23.526 77.026-47.576 19.847-24.401 30.778-55.195 30.778-86.708 0-51.613-29.087-98.858-74.661-122.312zm-14.337-4.429c-8.722 22.519-18.376 45.218-27.713 67.169-2.193 5.157-4.386 10.312-6.568 15.468-1.655 3.913-1.385 9.27 4.337 12.573 21.902 12.641 43.346 25.135 65.381 37.808 3.172 1.824 5.108 4.423 5.454 7.318.331 2.78-.871 5.624-3.385 8.009-39.548 37.52-79.474 75.269-118.668 112.351-5.615 5.312-8.907 4.39-11.554 3.108-4.058-1.964-5.864-6.331-4.296-10.383 10.865-28.081 22.153-53.828 34.318-82.63.798-1.89 2.841-8.38-4.389-12.541-21.949-12.631-44.175-25.014-66.017-38.206-2.8-1.691-4.505-4.134-4.802-6.878-.307-2.841.896-5.706 3.388-8.067 39.578-37.499 78.919-74.543 118.688-112.382 2.657-2.528 5.023-3.912 6.848-4.007 3.409.002 6.363 1.452 8.116 3.989.882 1.277 2.169 3.925.862 7.301zm183.385 63.633h-34.259c-3.807 0-7.266-2.46-8.606-6.121-1.912-5.223-4.067-10.426-6.406-15.465-1.645-3.542-.94-7.732 1.753-10.425l24.225-24.224c9.401-9.402 9.401-24.7 0-34.101l-55.148-55.148c-9.401-9.401-24.699-9.401-34.101 0l-24.225 24.223c-2.693 2.694-6.884 3.396-10.426 1.753-5.04-2.339-10.243-4.495-15.464-6.406-3.661-1.34-6.121-4.799-6.121-8.606v-34.259c-.001-13.296-10.818-24.113-24.114-24.113h-77.99c-13.296 0-24.113 10.817-24.113 24.113v34.259c0 3.807-2.46 7.266-6.121 8.606-5.221 1.911-10.424 4.066-15.464 6.406-3.542 1.644-7.733.94-10.426-1.753l-24.224-24.225c-9.402-9.401-24.7-9.401-34.101 0l-55.148 55.148c-9.401 9.401-9.401 24.699 0 34.101l24.225 24.224c2.693 2.693 3.397 6.883 1.753 10.426-2.339 5.039-4.494 10.242-6.406 15.465-1.34 3.661-4.799 6.121-8.606 6.121h-34.261c-13.296.001-24.113 10.818-24.113 24.114v77.99c0 13.296 10.817 24.113 24.113 24.113h34.259c3.807 0 7.266 2.46 8.606 6.121 1.912 5.223 4.067 10.426 6.406 15.465 1.645 3.543.94 7.732-1.753 10.426l-24.225 24.224c-9.401 9.402-9.401 24.7 0 34.101l55.148 55.148c9.401 9.401 24.699 9.401 34.101 0l24.224-24.225c2.693-2.693 6.883-3.396 10.426-1.753 5.039 2.339 10.242 4.494 15.465 6.406 3.661 1.34 6.121 4.799 6.121 8.606v34.259c0 13.296 10.817 24.113 24.113 24.113h77.99c13.296 0 24.113-10.817 24.113-24.113v-34.259c0-3.807 2.46-7.266 6.121-8.606 5.223-1.912 10.426-4.067 15.465-6.406 3.542-1.645 7.732-.94 10.425 1.753l24.224 24.225c9.402 9.401 24.7 9.401 34.101 0l55.148-55.148c9.401-9.401 9.401-24.699 0-34.101l-24.225-24.224c-2.693-2.693-3.397-6.883-1.753-10.426 2.339-5.039 4.494-10.242 6.406-15.465 1.34-3.661 4.799-6.121 8.606-6.121h34.259c13.296 0 24.113-10.817 24.113-24.113v-77.99c.003-13.296-10.814-24.113-24.11-24.113zm9.113 102.103c0 5.025-4.088 9.113-9.113 9.113h-34.259c-10.077 0-19.197 6.416-22.692 15.965-1.769 4.832-3.762 9.645-5.925 14.305-4.285 9.23-2.375 20.221 4.752 27.348l24.224 24.224c3.553 3.553 3.554 9.335 0 12.888l-55.148 55.148c-3.554 3.554-9.334 3.553-12.888 0l-24.224-24.225c-7.126-7.127-18.115-9.037-27.348-4.752-4.661 2.163-9.474 4.157-14.306 5.925-9.549 3.495-15.965 12.615-15.965 22.692v34.259c0 5.025-4.088 9.113-9.113 9.113h-77.99c-5.025 0-9.113-4.088-9.113-9.113v-34.259c0-10.077-6.416-19.197-15.965-22.692-4.832-1.769-9.645-3.762-14.305-5.925-3.285-1.525-6.792-2.265-10.269-2.265-6.293 0-12.488 2.426-17.079 7.017l-24.224 24.224c-3.553 3.553-9.335 3.554-12.888 0l-55.148-55.148c-3.553-3.553-3.553-9.335 0-12.888l24.225-24.224c7.127-7.127 9.037-18.117 4.752-27.348-2.163-4.661-4.157-9.474-5.925-14.306-3.495-9.549-12.615-15.965-22.692-15.965h-34.261c-5.025 0-9.113-4.088-9.113-9.113v-77.99c0-5.025 4.088-9.113 9.113-9.113h34.259c10.077 0 19.197-6.416 22.692-15.965 1.769-4.832 3.762-9.645 5.925-14.305 4.285-9.23 2.375-20.221-4.752-27.348l-24.224-24.224c-3.553-3.553-3.554-9.335 0-12.888l55.148-55.148c3.554-3.553 9.335-3.552 12.888 0l24.224 24.225c7.127 7.126 18.117 9.037 27.348 4.751 4.662-2.164 9.475-4.157 14.305-5.925 9.549-3.495 15.965-12.615 15.965-22.692v-34.258c0-5.025 4.088-9.113 9.113-9.113h77.99c5.025 0 9.113 4.088 9.113 9.113v34.259c0 10.077 6.416 19.197 15.965 22.692 4.83 1.768 9.643 3.762 14.305 5.925 9.231 4.284 20.221 2.375 27.348-4.752l24.224-24.224c3.553-3.553 9.335-3.554 12.888 0l55.148 55.148c3.553 3.553 3.553 9.335 0 12.888l-24.225 24.224c-7.127 7.127-9.037 18.117-4.752 27.348 2.163 4.661 4.157 9.474 5.925 14.306 3.495 9.549 12.615 15.965 22.692 15.965h34.259c5.025 0 9.113 4.088 9.113 9.113v77.99z"/></g></svg>