<?xml version="1.0" encoding="iso-8859-1"?>
<!-- Generator: Adobe Illustrator 19.0.0, SVG Export Plug-In . SVG Version: 6.00 Build 0)  -->
<svg version="1.1" id="Capa_1" xmlns="http://www.w3.org/2000/svg" xmlns:xlink="http://www.w3.org/1999/xlink" x="0px" y="0px"
	 viewBox="0 0 497.371 497.371" style="enable-background:new 0 0 497.371 497.371;" xml:space="preserve">
<path style="fill:#FFCA19;" d="M482.743,54.096v307.2c0,16.091-13.166,30.72-30.72,30.72h-65.829l-29.257,81.92l-86.309-81.92
	H45.349c-16.091,0-30.72-13.166-30.72-30.72v-307.2c0-17.554,13.166-30.72,30.72-30.72h406.674
	C469.577,23.376,482.743,36.542,482.743,54.096z"/>
<path d="M345.234,484.176l-81.92-77.531H45.349C20.48,406.645,0,386.165,0,361.296v-307.2C0,29.227,20.48,8.747,45.349,8.747
	h406.674c24.869,0,45.349,20.48,45.349,45.349v307.2c0,24.869-20.48,45.349-45.349,45.349h-55.589l-26.331,71.68
	c-1.463,4.389-5.851,8.777-10.24,8.777C354.011,490.028,349.623,488.565,345.234,484.176z M45.349,38.005
	c-8.777,0-14.629,7.314-14.629,16.091v307.2c0,8.777,7.314,16.091,14.629,16.091h225.28c4.389,0,7.314,1.463,10.24,4.389
	l70.217,65.829l21.943-59.977c1.463-5.851,7.314-10.24,14.629-10.24h65.829c8.777,0,14.629-7.314,14.629-16.091v-307.2
	c0-8.777-7.314-16.091-14.629-16.091L45.349,38.005L45.349,38.005z"/>
<path style="fill:#FFFFFF;" d="M250.149,327.65h-2.926c-14.629,0-26.331-11.703-26.331-26.331v-93.623
	c0-14.629,11.703-26.331,26.331-26.331h2.926c14.629,0,26.331,11.703,26.331,26.331v93.623
	C276.48,315.948,264.777,327.65,250.149,327.65z"/>
<path d="M250.149,342.279h-1.463c-23.406,0-42.423-19.017-42.423-42.423v-92.16c0-23.406,19.017-42.423,42.423-42.423h1.463
	c23.406,0,42.423,19.017,42.423,42.423v92.16C291.109,323.262,272.091,342.279,250.149,342.279z M247.223,195.993
	c-7.314,0-11.703,5.851-11.703,11.703v92.16c0,7.314,5.851,11.703,11.703,11.703h1.463c7.314,0,11.703-5.851,11.703-11.703v-92.16
	c0-7.314-5.851-11.703-11.703-11.703H247.223z"/>
<circle style="fill:#FFFFFF;" cx="248.686" cy="108.222" r="32.183"/>
<path d="M248.686,155.033c-26.331,0-46.811-20.48-46.811-46.811s20.48-46.811,46.811-46.811c26.331,0,46.811,20.48,46.811,46.811
	S275.017,155.033,248.686,155.033z M248.686,90.668c-8.777,0-16.091,7.314-16.091,16.091s7.314,17.554,16.091,17.554
	s16.091-7.314,16.091-16.091S257.463,90.668,248.686,90.668z"/>
<g style="opacity:0.1;">
	<path style="fill:#030303;" d="M482.743,76.039V54.096c0-17.554-13.166-30.72-30.72-30.72H45.349
		c-17.554,0-30.72,13.166-30.72,30.72v21.943H482.743z"/>
</g>
<g>
</g>
<g>
</g>
<g>
</g>
<g>
</g>
<g>
</g>
<g>
</g>
<g>
</g>
<g>
</g>
<g>
</g>
<g>
</g>
<g>
</g>
<g>
</g>
<g>
</g>
<g>
</g>
<g>
</g>
</svg>
