<?xml version="1.0" encoding="iso-8859-1"?>
<!-- Generator: Adobe Illustrator 19.0.0, SVG Export Plug-In . SVG Version: 6.00 Build 0)  -->
<svg version="1.1" id="Capa_1" xmlns="http://www.w3.org/2000/svg" xmlns:xlink="http://www.w3.org/1999/xlink" x="0px" y="0px"
	 viewBox="0 0 512 512" style="enable-background:new 0 0 512 512;" xml:space="preserve">
<path d="M16,192c-8.837,0-16-7.163-16-16V16C0,7.163,7.163,0,16,0h160c8.837,0,16,7.163,16,16s-7.163,16-16,16H32v144
	C32,184.837,24.837,192,16,192z"/>
<path d="M496,192c-8.837,0-16-7.163-16-16V32H336c-8.837,0-16-7.163-16-16s7.163-16,16-16h160c8.837,0,16,7.163,16,16v160
	C512,184.837,504.837,192,496,192z"/>
<path d="M176,512H16c-8.837,0-16-7.163-16-16V336c0-8.837,7.163-16,16-16s16,7.163,16,16v144h144c8.837,0,16,7.163,16,16
	S184.837,512,176,512z"/>
<path d="M496,512H336c-8.837,0-16-7.163-16-16s7.163-16,16-16h144V336c0-8.837,7.163-16,16-16s16,7.163,16,16v160
	C512,504.837,504.837,512,496,512z"/>
<path style="fill:#2196F3;" d="M336,352c-8.837,0-16-7.163-16-16V188.192l-51.712,62.048c-6.118,6.786-16.579,7.328-23.365,1.211
	c-0.424-0.382-0.828-0.786-1.211-1.211L192,188.192V336c0,8.837-7.163,16-16,16s-16-7.163-16-16V144
	c0.004-8.837,7.171-15.997,16.007-15.993c4.744,0.002,9.242,2.109,12.281,5.753L256,215.008l67.712-81.248
	c5.659-6.786,15.749-7.7,22.535-2.041c3.643,3.038,5.751,7.537,5.753,12.281v192C352,344.837,344.837,352,336,352z"/>
<g>
</g>
<g>
</g>
<g>
</g>
<g>
</g>
<g>
</g>
<g>
</g>
<g>
</g>
<g>
</g>
<g>
</g>
<g>
</g>
<g>
</g>
<g>
</g>
<g>
</g>
<g>
</g>
<g>
</g>
</svg>
