<?xml version="1.0" encoding="iso-8859-1"?>
<!-- Generator: Adobe Illustrator 19.0.0, SVG Export Plug-In . SVG Version: 6.00 Build 0)  -->
<svg version="1.1" id="Layer_1" xmlns="http://www.w3.org/2000/svg" xmlns:xlink="http://www.w3.org/1999/xlink" x="0px" y="0px"
	 viewBox="0 0 496 496" style="enable-background:new 0 0 496 496;" xml:space="preserve">
<path style="fill:#353F3E;" d="M496,376c0,17.6-14.4,32-32,32H32c-17.6,0-32-14.4-32-32V120c0-17.6,14.4-32,32-32h432
	c17.6,0,32,14.4,32,32V376z"/>
<g>
	<path style="fill:#1E2121;" d="M0,120c0-17.6,14.4-32,32-32h432c17.6,0,32,14.4,32,32v256c0,17.6-14.4,32-32,32"/>
	<path style="fill:#1E2121;" d="M159.2,231.2c0-2.4-1.6-4-4-4h-13.6c-1.6,0-3.2,0.8-4,2.4l-14.4,39.2c-1.6,4.8-3.2,9.6-4.8,13.6
		c-1.6-4-2.4-8.8-4-13.6l-13.6-39.2c-0.8-1.6-2.4-3.2-4-3.2H83.2c-2.4,0-4,1.6-4,4l-5.6,80c0,0.8,0,2.4,0.8,3.2
		c0.8,0.8,1.6,1.6,3.2,1.6H88c2.4,0,4-1.6,4-4l2.4-34.4c0-3.2,0-6.4,0.8-9.6c0.8,2.4,1.6,4.8,2.4,6.4l12.8,38.4
		c0.8,1.6,2.4,3.2,4,3.2h8c1.6,0,3.2-0.8,4-2.4l14.4-39.2c0.8-2.4,1.6-5.6,3.2-8c0,4,0,7.2,0.8,11.2l2.4,35.2c0,2.4,1.6,4,4,4h8.8
		l0,0c2.4,0,4-1.6,4-4v-0.8L159.2,231.2z"/>
	<path style="fill:#1E2121;" d="M220,225.6c-24.8,0-41.6,19.2-41.6,46.4c0,26.4,16.8,44.8,40,44.8c20.8,0,41.6-14.4,41.6-46.4
		C260.8,244,244,225.6,220,225.6z M220,242.4c14.4,0,21.6,14.4,21.6,28.8S235.2,300,220,300c-14.4,0-21.6-14.4-21.6-28
		C198.4,258.4,204,242.4,220,242.4z"/>
	<path style="fill:#1E2121;" d="M304,226.4c-7.2,0-15.2,0.8-22.4,1.6c-2.4,0-4,2.4-4,4v79.2c0,2.4,1.6,4,4,4
		c5.6,0.8,12,0.8,19.2,0.8c16.8,0,30.4-4.8,38.4-12.8c8.8-8,12.8-20,12.8-34.4c0-13.6-4-24-12.8-32
		C331.2,229.6,319.2,226.4,304,226.4z M332.8,269.6c0,19.2-10.4,29.6-29.6,29.6c-1.6,0-4,0-6.4,0v-56c1.6,0,4.8-0.8,8-0.8
		c9.6,0,16.8,2.4,21.6,7.2C330.4,254.4,332.8,261.6,332.8,269.6z"/>
	<path style="fill:#1E2121;" d="M418.4,298.4H388v-20.8h27.2c2.4,0,4-1.6,4-4v-8.8c0-2.4-1.6-4-4-4H388V244h28.8c2.4,0,4-1.6,4-4
		v-8.8c0-2.4-1.6-4-4-4h-43.2c-2.4,0-4,1.6-4,4v80c0,2.4,1.6,4,4,4h44.8c2.4,0,4-1.6,4-4v-8.8C422.4,300,420.8,298.4,418.4,298.4z"
		/>
</g>
<g>
	<path style="fill:#FFFFFF;" d="M159.2,207.2c0-2.4-1.6-4-4-4h-13.6c-1.6,0-3.2,0.8-4,2.4l-14.4,39.2c-1.6,4.8-3.2,9.6-4.8,13.6
		c-1.6-4-2.4-8.8-4-13.6l-13.6-39.2c-0.8-1.6-2.4-3.2-4-3.2H83.2c-2.4,0-4,1.6-4,4l-5.6,80c0,0.8,0,2.4,0.8,3.2
		c0.8,0.8,1.6,1.6,3.2,1.6H88c2.4,0,4-1.6,4-4l2.4-34.4c0-3.2,0-6.4,0.8-9.6c0.8,2.4,1.6,4.8,2.4,6.4l12.8,38.4
		c0.8,1.6,2.4,3.2,4,3.2h8c1.6,0,3.2-0.8,4-2.4l14.4-39.2c0.8-2.4,1.6-5.6,3.2-8c0,4,0,7.2,0.8,11.2l2.4,35.2c0,2.4,1.6,4,4,4h8.8
		l0,0c2.4,0,4-1.6,4-4v-0.8L159.2,207.2z"/>
	<path style="fill:#FFFFFF;" d="M220,202.4c-24.8,0-41.6,19.2-41.6,46.4c0,26.4,16.8,44.8,40,44.8c20.8,0,41.6-14.4,41.6-46.4
		C260.8,220.8,244,202.4,220,202.4z M220,219.2c14.4,0,21.6,14.4,21.6,28.8c0,14.4-6.4,28.8-21.6,28.8c-14.4,0-21.6-14.4-21.6-28
		C198.4,235.2,204,219.2,220,219.2z"/>
	<path style="fill:#FFFFFF;" d="M304,203.2c-7.2,0-15.2,0.8-22.4,1.6c-2.4,0-4,2.4-4,4V288c0,2.4,1.6,4,4,4c5.6,0.8,12,0.8,19.2,0.8
		c16.8,0,30.4-4.8,38.4-12.8c8.8-8,12.8-20,12.8-34.4c0-13.6-4-24-12.8-32C331.2,206.4,319.2,203.2,304,203.2z M332.8,246.4
		c0,19.2-10.4,29.6-29.6,29.6c-1.6,0-4,0-6.4,0v-56c1.6,0,4.8-0.8,8-0.8c9.6,0,16.8,2.4,21.6,7.2
		C330.4,231.2,332.8,238.4,332.8,246.4z"/>
	<path style="fill:#FFFFFF;" d="M418.4,275.2H388v-20.8h27.2c2.4,0,4-1.6,4-4v-8.8c0-2.4-1.6-4-4-4H388v-16.8h28.8c2.4,0,4-1.6,4-4
		V208c0-2.4-1.6-4-4-4h-43.2c-2.4,0-4,1.6-4,4v80c0,2.4,1.6,4,4,4h44.8c2.4,0,4-1.6,4-4v-8.8C422.4,276.8,420.8,275.2,418.4,275.2z"
		/>
</g>
<g>
</g>
<g>
</g>
<g>
</g>
<g>
</g>
<g>
</g>
<g>
</g>
<g>
</g>
<g>
</g>
<g>
</g>
<g>
</g>
<g>
</g>
<g>
</g>
<g>
</g>
<g>
</g>
<g>
</g>
</svg>
