<svg height="511pt" viewBox="-53 1 511 511.999" width="511pt" xmlns="http://www.w3.org/2000/svg"><g fill-rule="evenodd"><path d="m317.527344 502h-219.398438l-87.628906-87.632812v-326.851563h307.027344zm0 0" fill="#e9ebef"/><path d="m395.039062 424.484375h-219.394531l-87.628906-87.628906v-326.855469h307.023437zm0 0" fill="#b5f2ff"/><path d="m98.128906 502v-87.632812h-87.628906zm0 0" fill="#919cb0"/><path d="m175.644531 424.484375v-87.628906h-87.628906zm0 0" fill="#00d8ff"/><path d="m395.039062 0h-307.023437c-5.523437 0-10 4.476562-10 10v67.515625h-67.515625c-5.523438 0-10 4.476563-10 10v123.425781c0 5.523438 4.476562 10 10 10s10-4.476562 10-10v-113.425781h57.515625v35.914063c0 5.519531 4.476563 10 10 10s10-4.480469 10-10v-113.429688h287.023437v394.484375h-199.394531v-77.628906c0-5.523438-4.476562-10-10-10h-77.628906v-113.425781c0-5.523438-4.476563-10-10-10s-10 4.476562-10 10v123.425781c0 .113281.011719.226562.015625.339843.003906.109376.007812.21875.015625.328126.03125.429687.078125.859374.160156 1.277343v.007813c.085938.421875.207031.835937.34375 1.246094.035157.101562.070313.203124.109375.304687.144532.386719.308594.765625.496094 1.128906.011719.023438.019531.042969.03125.066407.203125.378906.4375.742187.691406 1.097656.0625.089844.128906.175781.199219.265625.261719.347656.542969.683593.855469.996093.003906.003907.007812.007813.007812.011719l87.632813 87.628907c.144531.148437.300781.277343.453125.414062.09375.082031.183594.171875.28125.253906.1875.152344.382812.289063.578125.425782.074219.050781.140625.109374.214843.160156.195313.128906.402344.246094.609376.363281.078124.042969.152343.097656.230468.136719.191406.101562.390625.1875.589844.277344.097656.046874.195312.097656.296875.140624.179687.074219.363281.132813.546875.195313.125.042969.25.09375.375.132813.167969.050781.339844.085937.507812.128906.148438.035156.292969.078125.441407.109375.175781.03125.351562.050781.523437.078125.148438.019531.292969.050781.441406.0625.289063.03125.574219.039062.863282.042968.039062 0 .078125.007813.113281.007813h131.882813v57.515625h-199.394532v-77.632812c0-5.519532-4.476562-10-10-10h-77.628906v-113.425782c0-5.523437-4.476562-10-10-10s-10 4.476563-10 10v123.425782c0 .117187.011719.230468.015625.34375.003906.109374.011719.21875.019531.328124.027344.429688.074219.859376.15625 1.277344v.003906c.085938.425782.207032.839844.347656 1.25.03125.101563.070313.203126.105469.304688.144531.386719.308594.765625.5 1.132812.011719.019532.019531.039063.027344.058594.203125.382813.441406.746094.691406 1.097656.0625.089844.128907.179688.195313.265626.269531.351562.554687.691406.867187 1.007812l87.632813 87.632812c.234375.234376.480468.457032.738281.667969.140625.113281.289063.214844.433594.320313.117187.085937.234375.183594.359375.265625.167968.109375.339844.207031.511718.308593.113282.0625.21875.132813.328126.195313.171874.089844.351562.164063.523437.246094.121094.054687.242187.117187.363281.167969.164063.070312.335938.121093.5.179687.140625.050781.277344.105469.421875.148437.15625.046876.320313.082032.480469.121094.15625.039063.308594.085938.464844.117188.164062.03125.332031.050781.5.074218.15625.023438.3125.050782.46875.066407.28125.03125.566406.039062.851562.042969.042969 0 .082032.007812.125.007812h219.394532c5.523437 0 10-4.476562 10-10v-67.515625h67.515624c5.523438 0 10-4.476563 10-10v-414.484375c0-5.523438-4.476562-10-10-10zm-306.910156 477.855469-53.488281-53.488281h53.488281zm77.515625-131v53.488281l-40.371093-40.375-13.117188-13.113281zm0 0"/><path d="m10.5 260.941406c5.507812 0 10-4.492187 10-10 0-5.507812-4.492188-10-10-10s-10 4.492188-10 10c0 5.507813 4.492188 10 10 10zm0 0"/><path d="m88.015625 183.429688c5.507813 0 10-4.492188 10-10 0-5.511719-4.492187-10.003907-10-10.003907s-10 4.492188-10 10.003907c0 5.507812 4.492187 10 10 10zm0 0"/></g></svg>