<svg id="Capa_1" enable-background="new 0 0 512 512" height="512" viewBox="0 0 512 512" width="512" xmlns="http://www.w3.org/2000/svg"><g><path d="m497 91h-287v-30h15c8.284 0 15-6.716 15-15s-6.716-15-15-15h-60c-8.284 0-15 6.716-15 15s6.716 15 15 15h15v30h-165c-8.284 0-15 6.716-15 15v180c0 8.284 6.716 15 15 15h165v30h-15c-8.284 0-15 6.716-15 15s6.716 15 15 15h60c8.284 0 15-6.716 15-15s-6.716-15-15-15h-15v-30h287c8.284 0 15-6.716 15-15v-180c0-8.284-6.716-15-15-15zm-467 180v-150h150v150zm452 0h-272v-150h272z"/><path d="m135 151h-60c-8.284 0-15 6.716-15 15s6.716 15 15 15h15v45c0 8.284 6.716 15 15 15s15-6.716 15-15v-45h15c8.284 0 15-6.716 15-15s-6.716-15-15-15z"/><path d="m497 391h-482c-8.284 0-15 6.716-15 15s6.716 15 15 15h482c8.284 0 15-6.716 15-15s-6.716-15-15-15z"/><path d="m497 451h-482c-8.284 0-15 6.716-15 15s6.716 15 15 15h482c8.284 0 15-6.716 15-15s-6.716-15-15-15z"/></g></svg>