<svg height="511pt" viewBox="-26 0 511 511.99913" width="511pt" xmlns="http://www.w3.org/2000/svg"><path d="m39.304688 256.472656c0 63.84375 31.71875 120.285156 80.261718 154.414063 8.554688 6.011719 9.007813 18.507812.792969 24.976562l-.230469.183594c-5.367187 4.222656-12.890625 4.503906-18.480468.578125-56.667969-39.796875-93.703126-105.652344-93.703126-180.152344 0-120.84375 100.023438-218.941406 220.625-219.976562v31.371094c-103.292968 1.023437-189.265624 85.074218-189.265624 188.605468zm0 0" fill="#1ed688"/><path d="m234.328125 8.449219 57.632813 39.421875c3.085937 2.109375 3.085937 6.664062 0 8.777344l-57.632813 39.417968c-3.527344 2.414063-8.320313-.113281-8.320313-4.386718v-78.84375c0-4.273438 4.792969-6.800782 8.320313-4.386719zm0 0" fill="#1ab975"/><path d="m420.839844 255.523438c0-63.847657-31.722656-120.285157-80.261719-154.414063-8.554687-6.015625-9.007813-18.511719-.792969-24.976563l.230469-.183593c5.367187-4.222657 12.890625-4.503907 18.476563-.578125 56.667968 39.796875 93.707031 105.652344 93.707031 180.152344 0 120.84375-99.859375 218.941406-220.457031 219.972656v-31.367188c103.289062-1.023437 189.097656-85.074218 189.097656-188.605468zm0 0" fill="#1ed688"/><path d="m225.816406 503.546875-57.632812-39.421875c-3.085938-2.109375-3.085938-6.664062 0-8.777344l57.632812-39.421875c3.527344-2.414062 8.320313.113281 8.320313 4.390625v78.839844c0 4.277344-4.792969 6.804688-8.320313 4.390625zm0 0" fill="#1ab975"/><path d="m327.898438 231.554688-94.402344 78.292968-23.800782 19.734375c-5.609374 4.648438-12.707031 7.171875-19.925781 7.171875-1.203125 0-2.402343-.070312-3.617187-.210937-8.417969-.992188-16.167969-5.457031-21.253906-12.246094l-36.710938-48.933594c-8.289062-11.054687-6.046875-26.746093 5.007812-35.046875 11.0625-8.289062 26.753907-6.046875 35.046876 5.007813l24.78125 33.042969.199218-.160157 102.726563-85.191406c10.640625-8.820313 26.421875-7.351563 35.242187 3.292969 8.824219 10.644531 7.351563 26.425781-3.292968 35.246094zm0 0" fill="#1ed688"/><path d="m327.898438 231.554688-94.402344 78.292968c-15.441406-7.710937-29.019532-18.363281-40.273438-31.640625l102.726563-85.191406c10.640625-8.820313 26.421875-7.351563 35.242187 3.292969 8.824219 10.644531 7.351563 26.425781-3.292968 35.246094zm0 0" fill="#35e298"/><path d="m123.886719 404.742188c-48.261719-33.929688-77.074219-89.359376-77.074219-148.269532 0-96.339844 76.34375-175.921875 171.6875-180.851562v16.058594c0 10.265624 11.546875 16.414062 20.070312 10.585937l57.625-39.417969c7.445313-5.085937 7.445313-16.085937.003907-21.175781l-57.628907-39.421875c-2.152343-1.472656-4.652343-2.25-7.226562-2.25-7.082031 0-12.84375 5.757812-12.84375 12.835938v16.339843c-39.832031 1.636719-78.433594 13.644531-112.070312 34.933594-3.503907 2.21875-4.546876 6.859375-2.328126 10.363281 2.214844 3.507813 6.859376 4.546875 10.359376 2.328125 31.234374-19.765625 67.050781-30.96875 104.03125-32.59375v16.359375c-104.042969 4.898438-186.699219 90.695313-186.699219 195.90625 0 63.796875 31.199219 123.816406 83.453125 160.554688 8.992187 6.320312-.832032 19.386718-9.28125 13.453125-113.714844-79.863281-121.929688-246.328125-14.878906-336.550781 3.171874-2.671876 3.574218-7.410157.902343-10.582032s-7.410156-3.578125-10.582031-.902344c-114.679688 96.652344-105.726562 274.890626 15.925781 360.324219 8.085938 5.683594 19.226563 5.683594 27.667969-1.003906 12.167969-9.574219 11.546875-28.121094-1.113281-37.023437zm109.632812-387.75 51.554688 35.265624-51.554688 35.265626zm0 0"/><path d="m362.808594 69.226562c-15.46875-10.867187-36.929688.890626-36.425782 19.667969.199219 7.394531 3.800782 14.085938 9.875 18.359375 48.261719 33.929688 77.074219 89.355469 77.074219 148.269532 0 96.339843-76.34375 175.917968-171.6875 180.847656v-16.054688c0-10.265625-11.550781-16.414062-20.070312-10.585937l-57.625 39.417969c-7.449219 5.085937-7.445313 16.082031-.003907 21.175781 62.953126 43.0625 59.460938 41.667969 64.855469 41.667969 7.082031 0 12.84375-5.757813 12.84375-12.835938v-16.347656c121.285157-4.921875 218.0625-104.652344 218.0625-227.285156 0-74.042969-36.222656-143.6875-96.898437-186.296876zm-136.183594 425.773438-51.554688-35.261719 51.554688-35.265625zm15.03125-27.210938v-16.363281c104.035156-4.894531 186.695312-90.691406 186.695312-195.902343 0-63.796876-31.199218-123.816407-83.453124-160.554688-2.15625-1.515625-3.433594-3.878906-3.5-6.480469-.179688-6.539062 7.480468-10.699219 12.78125-6.972656 56.675781 39.804687 90.511718 104.851563 90.511718 174.007813-.003906 113.621093-90.402344 207.296874-203.035156 212.265624zm0 0"/><path d="m194.300781 267.550781-20.046875-26.726562c-17.390625-23.191407-54.171875-13.582031-58.25 14.921875-1.230468 8.605468.96875 17.171875 6.183594 24.128906l36.699219 48.933594c13.222656 17.628906 38.59375 20.660156 55.597656 6.558594l118.210937-98.027344c13.847657-11.480469 15.761719-31.976563 4.28125-45.824219-11.453124-13.808594-32.011718-15.730469-45.824218-4.277344zm131.113281-66.449219c6.179688 7.453126 5.152344 18.492188-2.304687 24.675782l-118.210937 98.027344c-10.375 8.601562-25.902344 6.78125-33.996094-4.007813l-36.699219-48.933594c-2.808594-3.746093-3.992187-8.359375-3.328125-12.992187 2.207031-15.464844 22.039062-20.464844 31.363281-8.035156l24.777344 33.039062c2.558594 3.410156 7.480469 4.03125 10.804687 1.273438l102.917969-85.347657c7.4375-6.167969 18.507813-5.136719 24.675781 2.300781zm0 0"/></svg>